<svg width="30" height="30" viewBox="0 0 30 30" fill="none" xmlns="http://www.w3.org/2000/svg">
<path d="M5.625 12.5C5.625 8.70304 8.70304 5.625 12.5 5.625C16.297 5.625 19.375 8.70304 19.375 12.5C19.375 16.297 16.297 19.375 12.5 19.375C8.70304 19.375 5.625 16.297 5.625 12.5ZM12.5 3.75C7.66751 3.75 3.75 7.66751 3.75 12.5C3.75 17.3325 7.66751 21.25 12.5 21.25C14.5785 21.25 16.4878 20.5252 17.9889 19.3148L24.6496 25.9754C25.0157 26.3415 25.6093 26.3415 25.9754 25.9754C26.3415 25.6093 26.3415 25.0157 25.9754 24.6496L19.3148 17.9889C20.5252 16.4878 21.25 14.5785 21.25 12.5C21.25 7.66751 17.3325 3.75 12.5 3.75Z" fill="white"/>
</svg>
