<svg width="125" height="35" viewBox="0 0 125 35" fill="none" xmlns="http://www.w3.org/2000/svg">
<path d="M54.888 28C54.328 28 53.864 27.856 53.496 27.568C53.144 27.264 52.904 26.888 52.776 26.44C52.648 25.992 52.568 25.496 52.536 24.952C52.504 24.392 52.488 23.832 52.488 23.272C52.504 22.696 52.504 22.168 52.488 21.688C52.472 21.208 52.424 20.824 52.344 20.536C52.264 20.248 52.112 20.104 51.888 20.104C51.568 20.104 51.344 20.24 51.216 20.512C51.088 20.768 51.024 21.12 51.024 21.568C51.024 22 51.048 22.472 51.096 22.984C51.16 23.496 51.224 24.008 51.288 24.52C51.352 25.016 51.384 25.456 51.384 25.84C51.384 26.64 51.2 27.192 50.832 27.496C50.48 27.8 49.992 27.952 49.368 27.952C48.744 27.952 48.192 27.696 47.712 27.184C47.248 26.656 46.856 25.984 46.536 25.168C46.232 24.336 46 23.44 45.84 22.48C45.68 21.52 45.6 20.608 45.6 19.744C45.6 18.688 45.712 17.664 45.936 16.672C46.176 15.68 46.528 14.792 46.992 14.008C47.472 13.224 48.064 12.6 48.768 12.136C49.472 11.672 50.304 11.44 51.264 11.44C52.016 11.44 52.64 11.608 53.136 11.944C53.632 12.264 54.024 12.672 54.312 13.168C54.616 13.664 54.824 14.168 54.936 14.68C55.048 14.168 55.248 13.664 55.536 13.168C55.824 12.672 56.216 12.264 56.712 11.944C57.208 11.608 57.824 11.44 58.56 11.44C59.776 11.44 60.808 11.816 61.656 12.568C62.52 13.32 63.176 14.36 63.624 15.688C64.072 17 64.296 18.528 64.296 20.272C64.296 21.088 64.208 21.952 64.032 22.864C63.856 23.76 63.6 24.6 63.264 25.384C62.944 26.152 62.552 26.784 62.088 27.28C61.624 27.76 61.096 28 60.504 28C59.864 28 59.36 27.84 58.992 27.52C58.624 27.2 58.44 26.64 58.44 25.84C58.44 25.456 58.472 25.016 58.536 24.52C58.6 24.008 58.664 23.496 58.728 22.984C58.792 22.472 58.824 22 58.824 21.568C58.824 21.12 58.76 20.768 58.632 20.512C58.52 20.24 58.304 20.104 57.984 20.104C57.76 20.104 57.6 20.248 57.504 20.536C57.424 20.824 57.368 21.208 57.336 21.688C57.32 22.152 57.312 22.672 57.312 23.248C57.312 23.808 57.296 24.368 57.264 24.928C57.248 25.488 57.176 25.992 57.048 26.44C56.936 26.888 56.696 27.264 56.328 27.568C55.96 27.856 55.48 28 54.888 28ZM68.6481 28.024C67.9281 28.024 67.3441 27.792 66.8961 27.328C66.4481 26.848 66.1041 26.216 65.8641 25.432C65.6241 24.632 65.4641 23.76 65.3841 22.816C65.3041 21.872 65.2641 20.936 65.2641 20.008C65.2641 18.92 65.4081 17.856 65.6961 16.816C66.0001 15.776 66.4561 14.84 67.0641 14.008C67.6881 13.16 68.4721 12.488 69.4161 11.992C70.3601 11.496 71.4801 11.248 72.7761 11.248C74.0881 11.248 75.2721 11.52 76.3281 12.064C77.4001 12.608 78.2561 13.384 78.8961 14.392C79.5361 15.4 79.8561 16.6 79.8561 17.992C79.8561 19.24 79.6641 20.312 79.2801 21.208C78.8961 22.104 78.3761 22.84 77.7201 23.416C77.0801 23.976 76.3601 24.392 75.5601 24.664C74.7761 24.936 73.9761 25.064 73.1601 25.048C72.3441 25.016 71.5841 24.856 70.8801 24.568C70.9601 24.952 71.0001 25.344 71.0001 25.744C71.0161 26.144 70.9521 26.52 70.8081 26.872C70.6801 27.208 70.4401 27.488 70.0881 27.712C69.7521 27.92 69.2721 28.024 68.6481 28.024ZM73.0161 21.304C73.5921 21.304 74.0881 21.096 74.5041 20.68C74.9361 20.248 75.1521 19.752 75.1521 19.192C75.1521 18.616 74.9361 18.12 74.5041 17.704C74.0881 17.272 73.5921 17.056 73.0161 17.056C72.4401 17.056 71.9361 17.272 71.5041 17.704C71.0881 18.12 70.8801 18.616 70.8801 19.192C70.8801 19.752 71.0881 20.248 71.5041 20.68C71.9361 21.096 72.4401 21.304 73.0161 21.304ZM85.0553 27.928C84.4953 27.928 83.9273 27.92 83.3513 27.904C82.7753 27.872 82.2473 27.792 81.7673 27.664C81.2873 27.536 80.8953 27.32 80.5913 27.016C80.3033 26.712 80.1593 26.288 80.1593 25.744C80.1593 25.04 80.3993 24.544 80.8793 24.256C81.3593 23.952 81.9433 23.752 82.6313 23.656C82.5833 23.096 82.5513 22.488 82.5353 21.832C82.5193 21.16 82.5113 20.44 82.5113 19.672C82.5113 18.968 82.5193 18.304 82.5353 17.68C82.5513 17.04 82.5753 16.456 82.6073 15.928C81.7913 15.832 81.0873 15.624 80.4953 15.304C79.9193 14.984 79.6313 14.416 79.6313 13.6C79.6313 12.992 79.7913 12.528 80.1113 12.208C80.4313 11.872 80.8553 11.64 81.3833 11.512C81.9273 11.368 82.5113 11.28 83.1353 11.248C83.7753 11.216 84.4073 11.2 85.0312 11.2C85.6553 11.2 86.2873 11.216 86.9273 11.248C87.5673 11.28 88.1513 11.368 88.6793 11.512C89.2073 11.64 89.6313 11.872 89.9513 12.208C90.2873 12.528 90.4553 12.992 90.4553 13.6C90.4553 14.144 90.3193 14.576 90.0473 14.896C89.7753 15.216 89.4073 15.456 88.9433 15.616C88.4793 15.76 87.9753 15.864 87.4313 15.928C87.4793 16.456 87.5113 17.032 87.5273 17.656C87.5433 18.28 87.5513 18.952 87.5513 19.672C87.5513 20.44 87.5353 21.16 87.5033 21.832C87.4873 22.488 87.4553 23.096 87.4073 23.656C88.1273 23.736 88.7353 23.928 89.2313 24.232C89.7433 24.52 89.9993 25.024 89.9993 25.744C89.9993 26.288 89.8473 26.712 89.5433 27.016C89.2553 27.32 88.8633 27.536 88.3673 27.664C87.8873 27.792 87.3593 27.872 86.7833 27.904C86.2073 27.92 85.6313 27.928 85.0553 27.928ZM93.9578 28C93.4618 28 93.0218 27.8 92.6378 27.4C92.2698 27 91.9578 26.472 91.7018 25.816C91.4618 25.16 91.2618 24.44 91.1018 23.656C90.9578 22.872 90.8538 22.088 90.7898 21.304C90.7258 20.504 90.6938 19.784 90.6938 19.144C90.6938 18.328 90.7578 17.464 90.8857 16.552C91.0138 15.64 91.2378 14.784 91.5578 13.984C91.8778 13.168 92.3178 12.504 92.8778 11.992C93.4378 11.48 94.1578 11.224 95.0378 11.224C95.6458 11.224 96.1738 11.424 96.6218 11.824C97.0858 12.208 97.5018 12.752 97.8698 13.456C98.2378 14.144 98.5898 14.936 98.9258 15.832C99.2618 16.728 99.6218 17.68 100.006 18.688C99.9418 17.312 99.9818 16.064 100.126 14.944C100.286 13.808 100.606 12.904 101.086 12.232C101.566 11.56 102.246 11.224 103.126 11.224C103.878 11.224 104.478 11.48 104.926 11.992C105.39 12.504 105.742 13.168 105.982 13.984C106.222 14.784 106.382 15.64 106.462 16.552C106.558 17.464 106.606 18.328 106.606 19.144C106.606 19.8 106.558 20.52 106.462 21.304C106.366 22.088 106.206 22.872 105.982 23.656C105.758 24.44 105.454 25.16 105.07 25.816C104.686 26.472 104.214 27 103.654 27.4C103.11 27.8 102.454 28 101.686 28C100.998 28 100.406 27.784 99.9098 27.352C99.4298 26.904 98.9978 26.32 98.6138 25.6C98.2458 24.864 97.9018 24.056 97.5818 23.176C97.2618 22.296 96.9258 21.416 96.5738 20.536C96.5898 21.64 96.5898 22.656 96.5738 23.584C96.5578 24.496 96.4698 25.28 96.3098 25.936C96.1658 26.592 95.9098 27.104 95.5418 27.472C95.1738 27.824 94.6458 28 93.9578 28ZM116.299 27.976C114.507 27.976 112.971 27.656 111.691 27.016C110.427 26.36 109.459 25.44 108.787 24.256C108.131 23.056 107.803 21.648 107.803 20.032C107.803 18.48 108.051 17.152 108.547 16.048C109.059 14.928 109.731 14.016 110.563 13.312C111.395 12.592 112.315 12.064 113.323 11.728C114.331 11.376 115.347 11.2 116.371 11.2C117.715 11.2 118.867 11.4 119.827 11.8C120.787 12.184 121.523 12.688 122.035 13.312C122.547 13.936 122.803 14.584 122.803 15.256C122.803 15.976 122.667 16.536 122.395 16.936C122.139 17.336 121.803 17.616 121.387 17.776C120.987 17.936 120.571 18.016 120.139 18.016C119.595 18.016 119.163 17.96 118.843 17.848C118.539 17.72 118.227 17.6 117.907 17.488C117.587 17.376 117.155 17.32 116.611 17.32C115.571 17.32 114.739 17.632 114.115 18.256C113.507 18.88 113.203 19.776 113.203 20.944C113.203 21.632 113.347 22.2 113.635 22.648C113.923 23.096 114.299 23.432 114.763 23.656C115.243 23.88 115.755 23.992 116.299 23.992C116.843 23.992 117.291 23.928 117.643 23.8C118.011 23.656 118.283 23.504 118.459 23.344C118.635 23.184 118.723 23.064 118.723 22.984C117.651 22.984 116.787 22.864 116.131 22.624C115.475 22.368 115.147 21.88 115.147 21.16C115.147 20.552 115.363 20.048 115.795 19.648C116.227 19.232 117.027 19.024 118.195 19.024C119.331 19.024 120.219 19.16 120.859 19.432C121.515 19.688 121.971 20.096 122.227 20.656C122.499 21.216 122.635 21.944 122.635 22.84C122.635 23.8 122.347 24.672 121.771 25.456C121.195 26.24 120.427 26.864 119.467 27.328C118.507 27.776 117.451 27.992 116.299 27.976Z" fill="#44502F"/>
<path d="M8.832 27.952C7.312 27.952 5.928 27.648 4.68 27.04C3.432 26.416 2.44 25.48 1.704 24.232C0.968 22.984 0.6 21.424 0.6 19.552C0.6 18.448 0.792 17.4 1.176 16.408C1.56 15.4 2.096 14.504 2.784 13.72C3.488 12.936 4.312 12.32 5.256 11.872C6.2 11.424 7.24 11.2 8.376 11.2C9.8 11.2 11.048 11.464 12.12 11.992C13.192 12.504 14.024 13.208 14.616 14.104C15.224 15 15.528 16 15.528 17.104C15.528 17.536 15.44 17.952 15.264 18.352C15.104 18.736 14.848 19.056 14.496 19.312C14.16 19.568 13.72 19.696 13.176 19.696C12.664 19.696 12.256 19.616 11.952 19.456C11.664 19.296 11.416 19.104 11.208 18.88C11.016 18.64 10.816 18.4 10.608 18.16C10.4 17.92 10.144 17.72 9.84 17.56C9.536 17.4 9.12 17.32 8.592 17.32C8.096 17.32 7.64 17.448 7.224 17.704C6.808 17.96 6.472 18.312 6.216 18.76C5.976 19.192 5.856 19.688 5.856 20.248C5.856 21.08 6.072 21.808 6.504 22.432C6.952 23.056 7.584 23.368 8.4 23.368C9.04 23.368 9.544 23.272 9.912 23.08C10.296 22.888 10.616 22.672 10.872 22.432C11.144 22.176 11.432 21.952 11.736 21.76C12.056 21.568 12.464 21.472 12.96 21.472C13.664 21.472 14.192 21.704 14.544 22.168C14.912 22.632 15.064 23.2 15 23.872C14.936 24.56 14.632 25.216 14.088 25.84C13.56 26.464 12.84 26.976 11.928 27.376C11.032 27.76 10 27.952 8.832 27.952Z" fill="#44502F"/>
<path d="M30.881 3.21115C30.4502 2.809 29.7781 2.82058 29.3614 3.23734L26.8829 5.71578C25.2023 7.39645 23.3218 8.86466 21.2837 10.0875C20.7092 10.4322 20.3206 11.0175 20.2259 11.6807L18.2487 25.5212H17.0098C16.4057 25.5212 15.916 26.0109 15.916 26.6149C15.916 27.2189 16.4057 27.7087 17.0098 27.7087H43.9889C44.593 27.7087 45.0827 27.2189 45.0827 26.6149C45.0827 26.0109 44.593 25.5212 43.9889 25.5212H42.7501L40.7803 11.7331C40.6788 11.023 40.2483 10.4025 39.6186 10.0591C37.3809 8.83851 35.3059 7.34098 33.4424 5.60181L30.881 3.21115ZM33.5563 22.0468C34.27 23.316 35.194 24.5648 35.961 25.5212H25.0815C25.8621 24.5616 26.7914 23.302 27.4597 22.0147C28.3662 20.2685 29.3893 17.658 30.1741 15.5254C30.2775 15.2443 30.3773 14.9704 30.4725 14.7066C30.559 14.9549 30.6498 15.2122 30.7445 15.4763C31.505 17.5993 32.5334 20.2274 33.5563 22.0468Z" fill="#44502F"/>
</svg>
